<svg width="153" height="41" viewBox="0 0 153 41" fill="none" xmlns="http://www.w3.org/2000/svg">
    <g clip-path="url(#clip0_36_360)">
        <path
            d="M27.702 0.5C27.66 0.5 27.5761 0.5 27.5341 0.5H0V28.0341C0 31.7277 2.98006 34.7078 6.67366 34.7078H34.1658V7.17366C34.2078 3.56401 31.3116 0.583945 27.702 0.5ZM13.767 31.224H13.5992C10.0735 31.224 7.21931 27.8242 7.21931 23.6689V3.98374H7.3872C7.42917 3.98374 7.51311 3.98374 7.55509 3.98374C10.9968 4.06768 13.767 6.87985 13.767 10.3636V31.224ZM22.1616 31.224C22.1196 31.224 22.0776 31.224 21.9937 31.224C18.9717 31.224 16.5372 28.7896 16.5372 25.7676C16.5372 22.7455 18.9717 20.3111 21.9937 20.3111C22.0357 20.3111 22.0776 20.3111 22.1616 20.3111C25.0997 20.3951 27.4921 22.8295 27.4921 25.7676C27.4921 28.7476 25.0997 31.1401 22.1616 31.224Z"
            fill="#1b1b1b" />
        <path
            d="M66.5268 15.4423C65.8132 14.8127 64.9738 14.267 64.0084 13.8893C63.043 13.5115 61.9937 13.3017 60.9444 13.3017C59.6433 13.3017 58.3841 13.5535 57.2088 14.0572C56.0336 14.5608 55.0263 15.2324 54.1868 16.1138C53.3474 16.9953 52.6338 18.0026 52.1301 19.1359C51.6265 20.3111 51.3746 21.5283 51.3746 22.8714C51.3746 24.2146 51.6265 25.4318 52.1301 26.565C52.6338 27.6983 53.3054 28.7057 54.1868 29.5871C55.0263 30.4265 56.0756 31.1401 57.2088 31.6437C58.3841 32.1474 59.6013 32.3993 60.9444 32.3993C62.2036 32.3993 63.4208 32.1474 64.5541 31.6857C65.6873 31.224 66.6527 30.5525 67.4922 29.755L65.2676 27.5304C64.8479 27.9082 64.4281 28.244 64.0084 28.4958C63.5887 28.7476 63.169 28.9575 62.6233 29.1254C62.1196 29.2933 61.532 29.3352 60.9444 29.2933C60.2309 29.2933 59.6013 29.1254 59.0137 28.7896C58.4261 28.4538 57.8804 28.0341 57.4607 27.4465C56.999 26.9008 56.6632 26.2293 56.4114 25.4738C56.1595 24.7182 56.0336 23.9208 56.0336 23.0393C56.0336 22.1159 56.1595 21.2765 56.3694 20.479C56.6212 19.6815 56.957 19.01 57.3767 18.4643C57.7965 17.9187 58.3001 17.457 58.8877 17.1632C59.4754 16.8693 60.1469 16.7015 60.8605 16.7015C61.7839 16.7015 62.4974 16.8274 63.0011 17.0792C63.5047 17.331 63.8825 17.6668 64.1763 18.0026C64.4281 18.3384 64.596 18.6742 64.68 19.0519C64.722 19.3877 64.7639 19.6395 64.7639 19.7235C64.7639 19.8914 64.722 20.1432 64.596 20.5629C64.4701 20.9827 64.1343 21.3604 63.6307 21.7382C63.127 22.1159 62.3295 22.3678 61.2382 22.5357C60.1889 22.7036 58.7199 22.5776 56.8311 22.1999V22.6616C56.8311 23.627 56.999 24.5504 57.3348 25.4318C58.7618 25.7256 60.1469 25.8095 61.4901 25.7256C62.8332 25.6416 64.0504 25.3898 65.0997 24.9701C66.149 24.5504 67.0305 23.9627 67.702 23.2072C68.3736 22.4517 68.7513 21.5283 68.7933 20.437C68.8353 19.5136 68.6674 18.6322 68.2477 17.7927C67.786 16.8274 67.1983 16.1138 66.5268 15.4423Z"
            fill="#1b1b1b" />
        <path
            d="M85.0787 5.7046V22.9134C85.0787 23.7948 84.9528 24.5923 84.659 25.3478C84.3652 26.1033 84.0294 26.7749 83.5677 27.3625C83.106 27.9501 82.6024 28.4118 82.0147 28.7476C81.4271 29.0834 80.7975 29.2513 80.126 29.2513C79.4544 29.2513 78.8248 29.0834 78.2372 28.7476C77.6496 28.4118 77.1039 27.9501 76.6842 27.3625C76.2225 26.7749 75.8867 26.1033 75.6349 25.3059C75.3831 24.5084 75.2571 23.7109 75.2571 22.8295C75.2571 21.948 75.3831 21.1086 75.6349 20.3111C75.8867 19.5556 76.2645 18.884 76.6842 18.2964C77.1459 17.7088 77.6496 17.2471 78.2372 16.9113C78.8248 16.5755 79.4544 16.4076 80.126 16.4076C80.9654 16.4076 81.7209 16.6595 82.3925 17.0792C83.0641 17.5409 84.1134 18.926 84.1134 18.926V14.2251C82.8962 13.6374 81.553 13.3436 80.1679 13.3436C78.8248 13.3436 77.6076 13.5955 76.4743 14.0991C75.3411 14.6028 74.3337 15.2744 73.4523 16.1558C72.6129 16.9953 71.8993 18.0026 71.3956 19.1778C70.892 20.3111 70.6401 21.5703 70.6401 22.8714C70.6401 24.2146 70.892 25.4318 71.3956 26.565C71.8993 27.6983 72.5709 28.7057 73.4523 29.5871C74.2918 30.4685 75.2991 31.1401 76.4743 31.6437C77.6076 32.1474 78.8668 32.3992 80.1679 32.3992C81.4691 32.3992 82.7283 32.1474 83.9035 31.6437C85.0787 31.1401 86.0861 30.4685 86.9256 29.5871C87.765 28.7057 88.4785 27.7403 88.9822 26.565C89.4859 25.4318 89.7377 24.1726 89.7377 22.8714V4.61331C88.8143 4.61331 87.9749 4.69726 87.2613 4.90712C86.4219 5.11698 85.7083 5.36882 85.0787 5.7046Z"
            fill="#1b1b1b" />
        <path
            d="M108.122 16.1558C107.24 15.3164 106.233 14.6028 105.1 14.0991C103.924 13.5955 102.707 13.3436 101.406 13.3436C100.021 13.3436 98.7198 13.6374 97.4606 14.2251V19.01C97.4606 19.01 98.4679 17.6249 99.1815 17.1632C99.853 16.7015 100.609 16.4916 101.406 16.4916C102.078 16.4916 102.707 16.6595 103.337 16.9953C103.966 17.331 104.47 17.7927 104.932 18.3804C105.393 18.968 105.729 19.6395 105.981 20.3951C106.233 21.1506 106.359 21.99 106.359 22.9134C106.359 23.7948 106.233 24.6343 105.981 25.3898C105.729 26.1873 105.351 26.8588 104.932 27.4465C104.47 28.0341 103.966 28.4958 103.337 28.8316C102.707 29.1674 102.078 29.3352 101.406 29.3352C100.734 29.3352 100.105 29.1674 99.4753 28.8316C98.8457 28.4958 98.342 28.0341 97.8803 27.4465C97.4186 26.8588 97.0828 26.1873 96.831 25.4318C96.5792 24.6763 96.4532 23.8368 96.4532 22.9974V14.7287V4.61331C95.5718 4.61331 94.7324 4.69726 94.0188 4.90712C93.2633 5.11698 92.5917 5.36882 91.9622 5.74657V22.8714C91.9622 24.2146 92.214 25.4318 92.7177 26.565C93.2213 27.6983 93.8929 28.7057 94.7743 29.5871C95.6558 30.4265 96.6211 31.1401 97.7964 31.6437C98.9296 32.1474 100.189 32.3992 101.49 32.3992C102.791 32.3992 104.008 32.1474 105.184 31.6437C106.359 31.1401 107.366 30.4685 108.206 29.5871C109.045 28.7057 109.759 27.7403 110.262 26.565C110.766 25.4318 111.018 24.1726 111.018 22.8714C111.018 21.5703 110.766 20.3111 110.262 19.1778C109.633 18.0026 108.961 16.9953 108.122 16.1558Z"
            fill="#1b1b1b" />
        <path
            d="M116.055 6.46011C115.341 6.46011 114.753 6.71195 114.292 7.17365C113.83 7.63535 113.578 8.22297 113.578 8.9365C113.578 9.65004 113.83 10.2377 114.292 10.6994C114.753 11.203 115.341 11.4129 116.055 11.4129C116.768 11.4129 117.356 11.1611 117.817 10.6994C118.321 10.2377 118.531 9.60807 118.531 8.9365C118.531 8.22297 118.279 7.63535 117.817 7.17365C117.356 6.66998 116.768 6.46011 116.055 6.46011Z"
            fill="#1b1b1b" />
        <path
            d="M152.151 19.1359C151.689 18.0026 151.06 16.9953 150.262 16.1138C149.465 15.2324 148.5 14.5608 147.408 14.0572C146.317 13.5535 145.1 13.3017 143.757 13.3017C142.497 13.3017 141.322 13.5115 140.273 13.9732C139.224 14.4349 138.3 15.0645 137.503 15.862C138.51 16.8693 139.266 18.0866 139.727 19.4717C139.769 19.5556 139.769 19.5976 139.811 19.6815C139.853 19.6395 139.853 19.5556 139.895 19.5136C140.231 18.6322 140.735 17.9187 141.364 17.331C142.036 16.7434 142.833 16.4496 143.757 16.4496C144.47 16.4496 145.1 16.6175 145.645 16.9533C146.191 17.2891 146.653 17.7508 147.03 18.3384C147.408 18.926 147.702 19.5976 147.912 20.3531C148.122 21.1086 148.248 21.948 148.248 22.8714V31.7697C149.171 31.7697 150.011 31.6857 150.724 31.4759C151.48 31.266 152.151 31.0142 152.781 30.6364V22.8714C152.823 21.5283 152.613 20.3111 152.151 19.1359Z"
            fill="#1b1b1b" />
        <path
            d="M136.747 16.1558C135.95 15.3164 134.984 14.6028 133.893 14.0992C132.802 13.5955 131.584 13.3437 130.283 13.3437C128.94 13.3437 127.765 13.5955 126.632 14.0992C125.54 14.6028 124.575 15.2744 123.778 16.1558C122.98 16.9953 122.35 18.0026 121.889 19.1779C121.427 20.3111 121.217 21.5703 121.217 22.8715V31.7697C122.141 31.7697 122.98 31.6857 123.694 31.4759C124.449 31.266 125.121 31.0142 125.75 30.6364V22.8715C125.75 21.99 125.876 21.1506 126.086 20.3531C126.296 19.5976 126.59 18.926 126.967 18.3384C127.345 17.7508 127.807 17.2891 128.394 16.9533C128.94 16.6175 129.57 16.4496 130.283 16.4496C130.955 16.4496 131.584 16.6175 132.13 16.9533C132.676 17.2891 133.179 17.7508 133.557 18.3384C133.935 18.926 134.229 19.5976 134.439 20.3531C134.648 21.1086 134.774 21.9481 134.774 22.8715V31.7697C135.656 31.7697 136.495 31.6857 137.209 31.4759C137.964 31.266 138.636 31.0142 139.265 30.6364V22.8715C139.265 21.5703 139.056 20.3111 138.594 19.1779C138.174 18.0026 137.545 16.9953 136.747 16.1558Z"
            fill="#1b1b1b" />
        <path
            d="M42.6862 4.61331C42.6443 4.61331 42.6023 4.61331 42.5184 4.61331H42.3505V24.6763C42.3505 28.9155 44.8688 32.3992 47.9748 32.3992H48.1427V11.1191C48.1427 7.59337 45.7083 4.69726 42.6862 4.61331Z"
            fill="#1b1b1b" />
        <path
            d="M118.069 14.1831C115.677 14.2251 113.746 16.0719 113.746 18.2964V31.7697H113.872C116.306 31.7697 118.321 29.5871 118.321 26.9008V14.1831H118.195C118.153 14.1831 118.111 14.1831 118.069 14.1831Z"
            fill="#1b1b1b" />
        <mask id="mask0_36_360" style="mask-type:alpha" maskUnits="userSpaceOnUse" x="42" y="37"
            width="21" height="2">
            <path d="M62.2036 37.6878H42.4764V38.1915H62.2036V37.6878Z"
                fill="url(#paint0_linear_36_360)" />
        </mask>
        <g mask="url(#mask0_36_360)">
            <path d="M62.2036 37.6878H42.4764V38.1915H62.2036V37.6878Z"
                fill="url(#paint1_linear_36_360)" />
        </g>
        <mask id="mask1_36_360" style="mask-type:alpha" maskUnits="userSpaceOnUse" x="133" y="37"
            width="20" height="2">
            <path d="M152.739 37.6878H133.011V38.1915H152.739V37.6878Z"
                fill="url(#paint2_linear_36_360)" />
        </mask>
        <g mask="url(#mask1_36_360)">
            <path d="M152.739 37.6878H133.011V38.1915H152.739V37.6878Z"
                fill="url(#paint3_linear_36_360)" />
        </g>
        <path
            d="M70.5141 36.5546L70.0105 38.989C69.9265 39.3248 69.8426 39.4507 69.5488 39.4507H69.4228C69.129 39.4507 69.0031 39.3248 68.9192 39.031L68.4994 37.394C68.4994 37.3521 68.4994 37.3521 68.4994 37.3521C68.4994 37.3521 68.4994 37.3521 68.4994 37.394L68.0797 39.031C67.9958 39.3248 67.8698 39.4507 67.576 39.4507H67.4501C67.1143 39.4507 67.0304 39.3248 66.9884 38.989L66.4847 36.5546C66.4847 36.5126 66.5267 36.4286 66.6107 36.4286H67.1143C67.1563 36.4286 67.1983 36.4706 67.1983 36.5126L67.5341 38.7791C67.5341 38.8211 67.5341 38.8631 67.576 38.8631C67.576 38.8631 67.618 38.8211 67.618 38.7791L68.0797 36.9743C68.1217 36.7644 68.2056 36.7644 68.3735 36.7644H68.7513C68.9192 36.7644 69.0031 36.8064 69.0451 36.9743L69.5068 38.7791C69.5068 38.8211 69.5488 38.8631 69.5488 38.8631C69.5488 38.8631 69.5488 38.8211 69.5907 38.7791L69.9265 36.5126C69.9265 36.4706 69.9685 36.4286 70.0105 36.4286H70.5141C70.4722 36.4286 70.5141 36.4706 70.5141 36.5546Z"
            fill="#1b1b1b" />
        <path
            d="M74.2497 39.4087H73.788C73.746 39.4087 73.6621 39.3667 73.6621 39.2828V39.1988C73.4102 39.3667 73.1584 39.4507 72.9066 39.4507C72.4449 39.4507 71.9832 39.2828 71.9832 38.5692V38.5273C71.9832 37.9396 72.3609 37.6039 73.2843 37.6039H73.6201V37.352C73.6201 37.0162 73.4522 36.9323 73.1584 36.9323C72.8226 36.9323 72.4449 36.9743 72.277 36.9743H72.235C72.193 36.9743 72.151 36.9743 72.151 36.8903V36.5965C72.151 36.5545 72.193 36.5126 72.235 36.4706C72.4449 36.4286 72.7387 36.3867 73.1164 36.3867C73.8719 36.3867 74.2917 36.7224 74.2917 37.394V39.3247C74.3756 39.3667 74.3336 39.4087 74.2497 39.4087ZM73.6621 38.1075H73.3263C72.8226 38.1075 72.7387 38.2754 72.7387 38.5692V38.6112C72.7387 38.863 72.8646 38.947 73.1164 38.947C73.3263 38.947 73.4942 38.863 73.6621 38.7791V38.1075Z"
            fill="#1b1b1b" />
        <path
            d="M78.6568 36.5546L77.7754 39.6606C77.6075 40.2482 77.3976 40.5 76.6841 40.5C76.5162 40.5 76.2224 40.458 76.1385 40.4161C76.0965 40.4161 76.0125 40.3741 76.0125 40.3321V39.9963C76.0125 39.9544 76.0545 39.9124 76.1385 39.9124C76.3063 39.9124 76.6002 39.9544 76.7261 39.9544C76.9359 39.9544 77.0619 39.8704 77.1458 39.6186L77.1878 39.4507H77.1038C76.9359 39.4507 76.768 39.4087 76.6421 38.989L75.9286 36.5546V36.5126C75.9286 36.4706 75.9706 36.4286 76.0125 36.4286H76.5582C76.6002 36.4286 76.6421 36.4706 76.6421 36.5126L77.2297 38.6952C77.2717 38.7791 77.2717 38.8211 77.3137 38.8211H77.3557L77.9433 36.5126C77.9433 36.4706 77.9853 36.4286 78.0692 36.4286H78.6148C78.6148 36.4286 78.6568 36.4706 78.6568 36.5546C78.6568 36.5126 78.6568 36.5126 78.6568 36.5546Z"
            fill="#1b1b1b" />
        <path
            d="M84.4911 39.4507C84.3652 39.4927 84.2393 39.4927 84.1133 39.4927C83.5257 39.4927 83.2739 39.3667 83.2739 38.6532V36.9743L82.7702 36.8903C82.7282 36.8903 82.6443 36.8484 82.6443 36.7644V36.5126C82.6443 36.4706 82.6863 36.3867 82.7702 36.3867H83.2739V35.9669C83.2739 35.925 83.3159 35.883 83.3998 35.841L83.9035 35.7571H83.9454C83.9874 35.7571 84.0294 35.7991 84.0294 35.841V36.3867H84.4911C84.5331 36.3867 84.617 36.4286 84.617 36.5126V36.8064C84.617 36.8484 84.575 36.9323 84.4911 36.9323H84.0294V38.6112C84.0294 38.8631 84.0294 38.905 84.2393 38.905H84.5331C84.617 38.905 84.659 38.947 84.659 38.989V39.3248C84.617 39.4087 84.575 39.4087 84.4911 39.4507Z"
            fill="#1b1b1b" />
        <path
            d="M87.4291 39.4507C86.5896 39.4507 86.1699 38.905 86.1699 38.1075V37.6878C86.1699 36.9323 86.5896 36.3447 87.4291 36.3447C88.2686 36.3447 88.6883 36.8903 88.6883 37.6878V38.1075C88.7303 38.905 88.2686 39.4507 87.4291 39.4507ZM88.0167 37.7298C88.0167 37.3101 87.8069 37.0163 87.4291 37.0163C87.0513 37.0163 86.8415 37.3101 86.8415 37.7298V38.1495C86.8415 38.5692 87.0513 38.8631 87.4291 38.8631C87.8069 38.8631 88.0167 38.5692 88.0167 38.1495V37.7298Z"
            fill="#1b1b1b" />
        <path
            d="M94.6904 39.4507C94.5645 39.4927 94.4386 39.4927 94.3127 39.4927C93.7251 39.4927 93.4732 39.3667 93.4732 38.6532V36.9743L92.9695 36.8903C92.9276 36.8903 92.8436 36.8484 92.8436 36.7644V36.5126C92.8436 36.4706 92.8856 36.3867 92.9695 36.3867H93.4732V35.9669C93.4732 35.925 93.5152 35.883 93.5991 35.841L94.1028 35.7571H94.1448C94.1868 35.7571 94.2287 35.7991 94.2287 35.841V36.3867H94.6904C94.7324 36.3867 94.8163 36.4286 94.8163 36.5126V36.8064C94.8163 36.8484 94.7744 36.9323 94.6904 36.9323H94.2287V38.6112C94.2287 38.8631 94.2287 38.905 94.4386 38.905H94.7324C94.8163 38.905 94.8583 38.947 94.8583 38.989V39.3248C94.7744 39.4087 94.7324 39.4087 94.6904 39.4507Z"
            fill="#1b1b1b" />
        <path
            d="M98.8457 39.4087H98.342C98.3 39.4087 98.2161 39.3667 98.2161 39.2828V37.5199C98.2161 37.0582 98.1321 36.9323 97.7964 36.9323C97.6285 36.9323 97.4186 37.0163 97.1668 37.1002V39.2408C97.1668 39.2828 97.1248 39.3667 97.0408 39.3667H96.5372C96.4952 39.3667 96.4113 39.3248 96.4113 39.2408V35.4213C96.4113 35.3793 96.4532 35.2954 96.5372 35.2954H97.0408C97.0828 35.2954 97.1668 35.3374 97.1668 35.4213V36.5965C97.3766 36.4706 97.5865 36.3867 97.9642 36.3867C98.7198 36.3867 98.9296 36.8903 98.9296 37.5619V39.3248C98.9296 39.3667 98.8876 39.4087 98.8457 39.4087Z"
            fill="#1b1b1b" />
        <path
            d="M103.211 38.1495H101.49C101.49 38.4433 101.616 38.8211 102.12 38.8211C102.497 38.8211 102.875 38.7791 103.085 38.7791C103.127 38.7791 103.169 38.8211 103.169 38.8631V39.1988C103.169 39.2828 103.169 39.3248 103.043 39.3248C102.707 39.4087 102.497 39.4087 101.994 39.4087C101.448 39.4087 100.693 39.1149 100.693 38.0656V37.6878C100.693 36.8484 101.154 36.3447 101.994 36.3447C102.833 36.3447 103.253 36.8903 103.253 37.6878V37.9816C103.337 38.1076 103.295 38.1495 103.211 38.1495ZM102.623 37.6458C102.623 37.2261 102.413 36.9743 102.078 36.9743C101.742 36.9743 101.49 37.2261 101.49 37.6458V37.6878L102.623 37.6458Z"
            fill="#1b1b1b" />
        <path
            d="M109.297 35.841H109.045C108.793 35.841 108.709 35.883 108.709 36.1768V36.4286H109.213C109.255 36.4286 109.339 36.4706 109.339 36.5546V36.8903C109.339 36.9323 109.297 36.9743 109.213 36.9743H108.709V39.3247C108.709 39.3667 108.667 39.4507 108.583 39.4507H108.08C108.038 39.4507 107.954 39.4087 107.954 39.3247V36.9743L107.492 36.8903C107.45 36.8903 107.366 36.8484 107.366 36.8064V36.5546C107.366 36.5126 107.408 36.4286 107.492 36.4286H107.954V36.1768C107.954 35.5052 108.332 35.3373 108.877 35.3373C109.003 35.3373 109.087 35.3793 109.213 35.3793C109.255 35.3793 109.297 35.4213 109.297 35.4633V35.7571C109.381 35.799 109.339 35.841 109.297 35.841Z"
            fill="#1b1b1b" />
        <path
            d="M113.41 39.4087H112.907C112.865 39.4087 112.781 39.3667 112.781 39.2828V39.1569C112.487 39.3247 112.277 39.4087 111.941 39.4087C111.689 39.4087 111.438 39.3247 111.27 39.1988C111.06 38.989 111.018 38.6532 111.018 38.2335V36.5126C111.018 36.4706 111.06 36.3867 111.144 36.3867H111.647C111.689 36.3867 111.773 36.4286 111.773 36.5126V38.2754C111.773 38.5273 111.815 38.6952 111.899 38.7791C111.983 38.863 112.067 38.863 112.235 38.863C112.445 38.863 112.697 38.7371 112.823 38.6532V36.5126C112.823 36.4706 112.865 36.3867 112.949 36.3867H113.452C113.494 36.3867 113.578 36.4286 113.578 36.5126V39.2828C113.494 39.3667 113.452 39.4087 113.41 39.4087Z"
            fill="#1b1b1b" />
        <path
            d="M117.02 39.4507C116.894 39.4927 116.768 39.4927 116.642 39.4927C116.055 39.4927 115.803 39.3667 115.803 38.6532V36.9743L115.299 36.8903C115.257 36.8903 115.173 36.8484 115.173 36.7644V36.5126C115.173 36.4706 115.215 36.3867 115.299 36.3867H115.803V35.9669C115.803 35.925 115.845 35.883 115.929 35.841L116.432 35.7571H116.474C116.516 35.7571 116.558 35.7991 116.558 35.841V36.3867H117.02C117.062 36.3867 117.146 36.4286 117.146 36.5126V36.8064C117.146 36.8484 117.104 36.9323 117.02 36.9323H116.558V38.6112C116.558 38.8631 116.558 38.905 116.768 38.905H117.062C117.146 38.905 117.188 38.947 117.188 38.989V39.3248C117.104 39.4087 117.062 39.4087 117.02 39.4507Z"
            fill="#1b1b1b" />
        <path
            d="M121.175 39.4087H120.671C120.63 39.4087 120.546 39.3667 120.546 39.2828V39.1569C120.252 39.3247 120.042 39.4087 119.706 39.4087C119.454 39.4087 119.202 39.3247 119.035 39.1988C118.825 38.989 118.783 38.6532 118.783 38.2335V36.5126C118.783 36.4706 118.825 36.3867 118.909 36.3867H119.412C119.454 36.3867 119.538 36.4286 119.538 36.5126V38.2754C119.538 38.5273 119.58 38.6952 119.664 38.7791C119.748 38.863 119.832 38.863 120 38.863C120.21 38.863 120.462 38.7371 120.588 38.6532V36.5126C120.588 36.4706 120.63 36.3867 120.713 36.3867H121.217C121.259 36.3867 121.343 36.4286 121.343 36.5126V39.2828C121.259 39.3667 121.217 39.4087 121.175 39.4087Z"
            fill="#1b1b1b" />
        <path
            d="M124.617 36.9743C124.323 36.9743 124.113 37.0582 123.861 37.1842V39.3248C123.861 39.3667 123.819 39.4507 123.736 39.4507H123.232C123.19 39.4507 123.106 39.4087 123.106 39.3248V36.5546C123.106 36.5126 123.148 36.4286 123.232 36.4286H123.694C123.736 36.4286 123.819 36.4706 123.819 36.5546V36.6805C124.071 36.4706 124.365 36.4286 124.575 36.4286C124.617 36.4286 124.701 36.4706 124.701 36.5546V36.9323C124.743 36.9323 124.701 36.9743 124.617 36.9743Z"
            fill="#1b1b1b" />
        <path
            d="M128.688 38.1495H126.967C126.967 38.4433 127.093 38.8211 127.597 38.8211C127.975 38.8211 128.352 38.7791 128.562 38.7791C128.604 38.7791 128.646 38.8211 128.646 38.8631V39.1988C128.646 39.2828 128.646 39.3248 128.52 39.3248C128.185 39.4087 127.975 39.4087 127.471 39.4087C126.925 39.4087 126.17 39.1149 126.17 38.0656V37.6878C126.17 36.8484 126.632 36.3447 127.429 36.3447C128.269 36.3447 128.688 36.8903 128.688 37.6878V37.9816C128.772 38.1076 128.73 38.1495 128.688 38.1495ZM128.059 37.6458C128.059 37.2261 127.849 36.9743 127.513 36.9743C127.177 36.9743 126.925 37.2261 126.925 37.6458V37.6878L128.059 37.6458Z"
            fill="#1b1b1b" />
    </g>
    <defs>
        <linearGradient id="paint0_linear_36_360" x1="62.1776" y1="37.921" x2="42.4696" y2="37.921"
            gradientUnits="userSpaceOnUse">
            <stop stop-color="#1b1b1b" />
            <stop offset="0.9996" />
            <stop offset="1" />
        </linearGradient>
        <linearGradient id="paint1_linear_36_360" x1="62.1776" y1="37.921" x2="42.4696" y2="37.921"
            gradientUnits="userSpaceOnUse">
            <stop stop-color="#1b1b1b" />
            <stop offset="0.9996" stop-color="#1b1b1b" />
            <stop offset="1" stop-color="#1b1b1b" />
        </linearGradient>
        <linearGradient id="paint2_linear_36_360" x1="133.011" y1="37.9232" x2="152.719"
            y2="37.9232" gradientUnits="userSpaceOnUse">
            <stop stop-color="#1b1b1b" />
            <stop offset="0.9996" />
            <stop offset="1" />
        </linearGradient>
        <linearGradient id="paint3_linear_36_360" x1="133.011" y1="37.9232" x2="152.719"
            y2="37.9232" gradientUnits="userSpaceOnUse">
            <stop stop-color="#1b1b1b" />
            <stop offset="0.9996" stop-color="#1b1b1b" />
            <stop offset="1" stop-color="#1b1b1b" />
        </linearGradient>
        <clipPath id="clip0_36_360">
            <rect width="152.823" height="40" fill="#1b1b1b" transform="translate(0 0.5)" />
        </clipPath>
    </defs>
</svg>